{"asset":{"version":"2.0","generator":"Strawberry procedural asset bootstrap"},"scene":0,"scenes":[{"nodes":[0,1,2,3,4,5,6,7,8,9,10,11]}],"nodes":[{"name":"trunk","mesh":0,"translation":[0,0,0],"scale":[0.42,9.5,0.42]},{"name":"pine_bough_layer_0","mesh":1,"translation":[0,5.4,0],"scale":[3.8,2.6,1.15],"rotation":[0,0.0,0,1.0]},{"name":"pine_bough_layer_1","mesh":1,"translation":[0.15,7.0,0],"scale":[3.25,2.35,1.05],"rotation":[0,0.3050586364434435,0,0.9523335698857134]},{"name":"pine_bough_layer_2","mesh":1,"translation":[-0.12,8.4,0],"scale":[2.65,2.1,0.95],"rotation":[0,0.5810351605373051,0,0.8138784566625339]},{"name":"pine_bough_layer_3","mesh":1,"translation":[0.08,9.65,0],"scale":[2.05,1.8,0.85],"rotation":[0,0.8016199408837771,0,0.5978339822872983]},{"name":"pine_bough_layer_4","mesh":1,"translation":[-0.04,10.75,0],"scale":[1.35,1.45,0.75],"rotation":[0,0.945783999449539,0,0.32479628443877623]},{"name":"branch_0","mesh":2,"translation":[0.55,4.2,0.0],"rotation":[0,0,0.7071067811865475,0.7071067811865476],"scale":[0.055,1.6,0.055]},{"name":"branch_1","mesh":2,"translation":[0.3418854825488654,4.75,0.4308298002951159],"rotation":[0,0,0.7071067811865475,0.7071067811865476],"scale":[0.055,1.6,0.055]},{"name":"branch_2","mesh":2,"translation":[-0.12496115208119792,5.300000000000001,0.5356161969830073],"rotation":[0,0,0.7071067811865475,0.7071067811865476],"scale":[0.055,1.6,0.055]},{"name":"branch_3","mesh":2,"translation":[-0.4972396781093837,5.8500000000000005,0.2350589341286064],"rotation":[0,0,0.7071067811865475,0.7071067811865476],"scale":[0.055,1.6,0.055]},{"name":"branch_4","mesh":2,"translation":[-0.4932171289837809,6.4,-0.24338624381216886],"rotation":[0,0,0.7071067811865475,0.7071067811865476],"scale":[0.055,1.6,0.055]},{"name":"branch_5","mesh":2,"translation":[-0.11593768968692884,6.95,-0.5376415647158034],"rotation":[0,0,0.7071067811865475,0.7071067811865476],"scale":[0.055,1.6,0.055]}],"meshes":[{"name":"tapered_trunk_proxy","primitives":[{"attributes":{"POSITION":0},"indices":1,"material":0}]},{"name":"needle_bough_layer_proxy","primitives":[{"attributes":{"POSITION":2},"indices":3,"material":1}]},{"name":"angular_branch_proxy","primitives":[{"attributes":{"POSITION":4},"indices":5,"material":2}]}],"materials":[{"name":"rough_bark","pbrMetallicRoughness":{"baseColorFactor":[0.25,0.14,0.07,1],"roughnessFactor":1,"metallicFactor":0}},{"name":"dark_pine_needles","pbrMetallicRoughness":{"baseColorFactor":[0.05,0.19,0.09,1],"roughnessFactor":1,"metallicFactor":0}},{"name":"dark_branch_bark","pbrMetallicRoughness":{"baseColorFactor":[0.1,0.07,0.04,1],"roughnessFactor":1,"metallicFactor":0}}],"buffers":[{"uri":"data:application/octet-stream;base64,","byteLength":1056}],"bufferViews":[{"buffer":0,"byteOffset":0,"byteLength":240},{"buffer":0,"byteOffset":240,"byteLength":216},{"buffer":0,"byteOffset":456,"byteLength":156},{"buffer":0,"byteOffset":612,"byteLength":132},{"buffer":0,"byteOffset":744,"byteLength":168},{"buffer":0,"byteOffset":912,"byteLength":144}],"accessors":[{"bufferView":0,"componentType":5126,"count":20,"type":"VEC3","min":[-0.9396926207859084,0,-0.9848077530122081],"max":[1.0,1,0.984807753012208]},{"bufferView":1,"componentType":5123,"count":108,"type":"SCALAR"},{"bufferView":2,"componentType":5126,"count":13,"type":"VEC3","min":[-0.9594929736144975,0,-0.9898214418809327],"max":[1.0,1,0.9898214418809328]},{"bufferView":3,"componentType":5123,"count":66,"type":"SCALAR"},{"bufferView":4,"componentType":5126,"count":14,"type":"VEC3","min":[-1.0,0,-0.8660254037844386],"max":[1.0,1,0.8660254037844387]},{"bufferView":5,"componentType":5123,"count":72,"type":"SCALAR"}]}